<?xml version="1.0" encoding="utf-8"?>
<!-- Generator: Adobe Illustrator 22.1.0, SVG Export Plug-In . SVG Version: 6.00 Build 0)  -->
<svg version="1.1" id="Layer_1" xmlns="http://www.w3.org/2000/svg" xmlns:xlink="http://www.w3.org/1999/xlink" x="0px" y="0px"
	 viewBox="0 0 613 58.8" style="enable-background:new 0 0 613 58.8;" xml:space="preserve">
<style type="text/css">
	.st0{fill:#7E57C2;}
	.st1{fill:#FFFFFF;}
	.st2{fill:none;stroke:#7E57C2;stroke-miterlimit:10;}
</style>
<title>Untitled-1</title>
<g id="XMLID_1_">
	<g>
		<path class="st0" d="M613,0v59c0-16.3-137.1-29.5-306.5-29.5S0,42.7,0,59V0H613z"/>
		<path class="st1" d="M613,59L306.5,29.5C475.9,29.5,613,42.7,613,59z"/>
		<path class="st1" d="M306.5,29.5L0,59C0,42.7,137.1,29.5,306.5,29.5z"/>
	</g>
	<g>
		<line class="st2" x1="0" y1="0" x2="0" y2="59"/>
		<line class="st2" x1="613" y1="0" x2="0" y2="0"/>
		<line class="st2" x1="613" y1="59" x2="613" y2="0"/>
		<path class="st2" d="M0,59c0-16.3,137.1-29.5,306.5-29.5"/>
		<path class="st2" d="M613,59c0-16.3-137.1-29.5-306.5-29.5"/>
	</g>
</g>
</svg>
