<?xml version="1.0" encoding="utf-8"?>
<!-- Generator: Adobe Illustrator 22.1.0, SVG Export Plug-In . SVG Version: 6.00 Build 0)  -->
<svg version="1.1" id="Layer_1" xmlns="http://www.w3.org/2000/svg" xmlns:xlink="http://www.w3.org/1999/xlink" x="0px" y="0px"
	 viewBox="0 0 613 144.5" enable-background="new 0 0 613 144.5" xml:space="preserve">
<title>Untitled-1</title>
<g id="XMLID_1_">
	<g>
		<path fill="#7E57C2" d="M613,0v144.5c0-39.9-137.1-72.3-306.5-72.3S0,104.6,0,144.5V0H613z"/>
		<path fill="#FFFFFF" d="M613,144.5L306.5,72.3C475.9,72.3,613,104.6,613,144.5z"/>
		<path fill="#FFFFFF" d="M306.5,72.3L0,144.5C0,104.6,137.1,72.3,306.5,72.3z"/>
	</g>
	<g>
		<line fill="none" stroke="#7E57C2" stroke-miterlimit="10" x1="0" y1="0" x2="0" y2="144.5"/>
		<line fill="none" stroke="#7E57C2" stroke-miterlimit="10" x1="613" y1="0" x2="0" y2="0"/>
		<line fill="none" stroke="#7E57C2" stroke-miterlimit="10" x1="613" y1="144.5" x2="613" y2="0"/>
		<path fill="none" stroke="#7E57C2" stroke-miterlimit="10" d="M0,144.5c0-39.9,137.1-72.3,306.5-72.3"/>
		<path fill="none" stroke="#7E57C2" stroke-miterlimit="10" d="M613,144.5c0-39.9-137.1-72.3-306.5-72.3"/>
	</g>
</g>
</svg>
